<svg width="16" height="16" viewBox="0 0 16 16" fill="none" xmlns="http://www.w3.org/2000/svg">
<path d="M8.47336 8.93359C8.41138 8.99607 8.33765 9.04567 8.25641 9.07952C8.17517 9.11336 8.08803 9.13079 8.00002 9.13079C7.91202 9.13079 7.82488 9.11336 7.74364 9.07952C7.6624 9.04567 7.58867 8.99607 7.52669 8.93359L4.47335 5.87359C4.41138 5.8111 4.33764 5.76151 4.25641 5.72766C4.17517 5.69381 4.08803 5.67639 4.00002 5.67639C3.91201 5.67639 3.82488 5.69381 3.74364 5.72766C3.6624 5.76151 3.58866 5.8111 3.52669 5.87359C3.40252 5.9985 3.33282 6.16746 3.33282 6.34359C3.33282 6.51971 3.40252 6.68868 3.52669 6.81359L6.58669 9.87359C6.96169 10.2481 7.47002 10.4585 8.00002 10.4585C8.53003 10.4585 9.03836 10.2481 9.41336 9.87359L12.4734 6.81359C12.5965 6.68941 12.666 6.52182 12.6667 6.34692C12.6672 6.25918 12.6504 6.17221 12.6172 6.09098C12.584 6.00976 12.5352 5.93588 12.4734 5.87359C12.4114 5.8111 12.3377 5.76151 12.2564 5.72766C12.1752 5.69381 12.088 5.67639 12 5.67639C11.912 5.67639 11.8249 5.69381 11.7436 5.72766C11.6624 5.76151 11.5887 5.8111 11.5267 5.87359L8.47336 8.93359Z" fill="#FD9222"/>
</svg>
